<?xml version="1.0" encoding="UTF-8"?>
<!DOCTYPE svg PUBLIC "-//W3C//DTD SVG 1.1//EN" "http://www.w3.org/Graphics/SVG/1.1/DTD/svg11.dtd">
<svg xmlns="http://www.w3.org/2000/svg" version="1.1" width="512px" height="512px" style="shape-rendering:geometricPrecision; text-rendering:geometricPrecision; image-rendering:optimizeQuality; fill-rule:evenodd; clip-rule:evenodd" xmlns:xlink="http://www.w3.org/1999/xlink">
<g><path style="opacity:0.964" fill="#000000" d="M 233.5,-0.5 C 248.167,-0.5 262.833,-0.5 277.5,-0.5C 278.209,0.403972 279.209,0.737305 280.5,0.5C 282.138,12.9328 281.638,25.2661 279,37.5C 271.06,48.9406 261.56,58.9406 250.5,67.5C 223.274,48.1453 194.607,30.9787 164.5,16C 186.87,7.36366 209.87,1.86366 233.5,-0.5 Z"/></g>
<g><path style="opacity:0.969" fill="#000000" d="M 305.5,4.5 C 350.325,12.7475 389.658,31.9142 423.5,62C 403.879,66.0735 384.545,71.4068 365.5,78C 345.234,87.1297 325.901,97.7963 307.5,110C 306.167,110.667 304.833,110.667 303.5,110C 292.956,100.617 282.289,91.4504 271.5,82.5C 279.85,73.9843 288.016,65.3177 296,56.5C 303.352,44.5912 306.852,31.5912 306.5,17.5C 305.625,13.2127 305.292,8.8794 305.5,4.5 Z"/></g>
<g><path style="opacity:0.975" fill="#000000" d="M 133.5,29.5 C 167.676,44.2491 200.009,62.0825 230.5,83C 208.952,98.9412 185.286,110.941 159.5,119C 130.169,125 100.836,131 71.5,137C 54.9785,140.672 38.8119,145.505 23,151.5C 22.5,151.167 22,150.833 21.5,150.5C 45.7298,97.9405 83.0632,57.6072 133.5,29.5 Z"/></g>
<g><path style="opacity:0.972" fill="#000000" d="M 441.5,84.5 C 443.527,84.3379 445.527,84.5045 447.5,85C 482.787,125.039 503.454,171.539 509.5,224.5C 494.868,206.697 478.201,191.197 459.5,178C 438.215,163.18 414.882,158.513 389.5,164C 379.629,165.718 369.962,168.218 360.5,171.5C 355.11,166.602 350.61,160.935 347,154.5C 339.167,146 331.333,137.5 323.5,129C 348.992,110.923 376.992,98.2565 407.5,91C 418.932,88.6123 430.266,86.4457 441.5,84.5 Z"/></g>
<g><path style="opacity:0.982" fill="#000000" d="M -0.5,276.5 C -0.5,262.833 -0.5,249.167 -0.5,235.5C 1.26917,218.318 4.60251,201.318 9.5,184.5C 34.8459,171.774 61.5125,162.94 89.5,158C 110.48,153.892 131.48,149.892 152.5,146C 188.976,137.093 221.976,121.26 251.5,98.5C 262.604,106.768 273.271,115.601 283.5,125C 224.546,165.93 171.046,213.43 123,267.5C 114.574,278.682 105.908,289.682 97,300.5C 73.776,331.28 56.6093,365.28 45.5,402.5C 19.2663,364.464 3.933,322.464 -0.5,276.5 Z"/></g>
<g><path style="opacity:0.988" fill="#000000" d="M 301.5,142.5 C 306.072,145.563 310.239,149.23 314,153.5C 322.594,162.757 330.427,172.59 337.5,183C 318.873,198.314 305.707,217.481 298,240.5C 293.046,254.984 288.712,269.651 285,284.5C 271.653,346.871 255.653,408.538 237,469.5C 232.496,482.842 227.162,495.842 221,508.5C 160.289,500.478 108.956,474.144 67,429.5C 68.3755,410.697 73.0422,392.697 81,375.5C 96.6878,342.763 116.355,312.763 140,285.5C 188.23,231.08 242.063,183.413 301.5,142.5 Z"/></g>
<g><path style="opacity:0.979" fill="#000000" d="M 511.5,264.5 C 511.5,269.5 511.5,274.5 511.5,279.5C 505.027,340.107 480.527,392.107 438,435.5C 434.127,370.134 420.794,306.8 398,245.5C 390.347,227.53 382.18,209.864 373.5,192.5C 385.608,189.199 397.941,187.199 410.5,186.5C 420.455,186.651 429.788,189.151 438.5,194C 456.726,205.211 472.893,219.044 487,235.5C 495.407,245.064 503.574,254.731 511.5,264.5 Z"/></g>
<g><path style="opacity:0.985" fill="#000000" d="M 278.5,511.5 C 267.833,511.5 257.167,511.5 246.5,511.5C 257.542,485.876 266.709,459.542 274,432.5C 286.451,385.028 298.118,337.361 309,289.5C 312.392,275.656 316.392,261.989 321,248.5C 324.946,237.942 329.946,227.942 336,218.5C 340.021,212.979 344.854,208.312 350.5,204.5C 369.986,238.78 384.486,275.114 394,313.5C 406.125,361.034 412.625,409.2 413.5,458C 373.363,488.101 328.363,505.935 278.5,511.5 Z"/></g>
</svg>
